<svg height="472pt" viewBox="-3 0 471 472" width="472pt" xmlns="http://www.w3.org/2000/svg"><path d="m24.5 424h440v32c-.027344 8.824219-7.175781 15.972656-16 16h-432c-8.824219-.027344-15.972656-7.175781-16-16v-32zm0 0" fill="#898890"/><path d="m440.5 168v256h-416v-256c0-17.671875 14.328125-32 32-32h352c17.671875 0 32 14.328125 32 32zm0 0" fill="#78b9eb"/><path d="m440.5 168v256h-336l288-288h16c17.671875 0 32 14.328125 32 32zm0 0" fill="#5aaae7"/><path d="m200.5 440h64v16h-64zm0 0" fill="#787680"/><g fill="#3d9ae2"><path d="m112.5 48c-13.253906 0-24-10.746094-24-24s10.746094-24 24-24 24 10.746094 24 24-10.746094 24-24 24zm0-32c-4.417969 0-8 3.582031-8 8s3.582031 8 8 8 8-3.582031 8-8-3.582031-8-8-8zm0 0"/><path d="m56.5 0h16v48h-16zm0 0"/><path d="m152.5 0h16v48h-16zm0 0"/><path d="m208.5 96c-13.253906 0-24-10.746094-24-24s10.746094-24 24-24 24 10.746094 24 24-10.746094 24-24 24zm0-32c-4.417969 0-8 3.582031-8 8s3.582031 8 8 8 8-3.582031 8-8-3.582031-8-8-8zm0 0"/><path d="m264.5 224c-13.253906 0-24-10.746094-24-24s10.746094-24 24-24 24 10.746094 24 24-10.746094 24-24 24zm0-32c-4.417969 0-8 3.582031-8 8s3.582031 8 8 8 8-3.582031 8-8-3.582031-8-8-8zm0 0"/><path d="m288.5 352c-13.253906 0-24-10.746094-24-24s10.746094-24 24-24 24 10.746094 24 24-10.746094 24-24 24zm0-32c-4.417969 0-8 3.582031-8 8s3.582031 8 8 8 8-3.582031 8-8-3.582031-8-8-8zm0 0"/><path d="m368.5 160c-13.253906 0-24-10.746094-24-24s10.746094-24 24-24 24 10.746094 24 24-10.746094 24-24 24zm0-32c-4.417969 0-8 3.582031-8 8s3.582031 8 8 8 8-3.582031 8-8-3.582031-8-8-8zm0 0"/><path d="m248.5 48h16v48h-16zm0 0"/><path d="m280.5 48h16v48h-16zm0 0"/><path d="m176.5 176h16v48h-16zm0 0"/><path d="m208.5 176h16v48h-16zm0 0"/><path d="m120.5 288c-13.253906 0-24-10.746094-24-24s10.746094-24 24-24 24 10.746094 24 24-10.746094 24-24 24zm0-32c-4.417969 0-8 3.582031-8 8s3.582031 8 8 8 8-3.582031 8-8-3.582031-8-8-8zm0 0"/><path d="m64.5 240h16v48h-16zm0 0"/><path d="m160.5 240h16v48h-16zm0 0"/><path d="m232.5 304h16v48h-16zm0 0"/><path d="m328.5 304h16v48h-16zm0 0"/><path d="m360.5 304h16v48h-16zm0 0"/><path d="m288.5 112h16v48h-16zm0 0"/><path d="m320.5 112h16v48h-16zm0 0"/></g></svg>